<svg width="26" height="34" viewBox="0 0 26 34" fill="none" xmlns="http://www.w3.org/2000/svg">
<path d="M8.90625 18.525L10.3312 13.9729L6.57083 11.0438H11.1625L12.6667 6.33333L14.1312 11.0438H18.7625L15.0021 13.9729L16.3875 18.525L12.6667 15.7146L8.90625 18.525ZM3.325 33.25V21.2167C2.1375 19.9764 1.28646 18.6174 0.771875 17.1396C0.257292 15.6618 0 14.1708 0 12.6667C0 9.07778 1.21389 6.06944 3.64167 3.64167C6.06944 1.21389 9.07778 0 12.6667 0C16.2556 0 19.2639 1.21389 21.6917 3.64167C24.1194 6.06944 25.3333 9.07778 25.3333 12.6667C25.3333 14.1708 25.076 15.6618 24.5615 17.1396C24.0469 18.6174 23.1958 19.9764 22.0083 21.2167V33.25L12.6667 30.1229L3.325 33.25ZM12.6667 22.9583C15.5431 22.9583 17.9774 21.9622 19.9698 19.9698C21.9622 17.9774 22.9583 15.5431 22.9583 12.6667C22.9583 9.79028 21.9622 7.3559 19.9698 5.36354C17.9774 3.37118 15.5431 2.375 12.6667 2.375C9.79028 2.375 7.3559 3.37118 5.36354 5.36354C3.37118 7.3559 2.375 9.79028 2.375 12.6667C2.375 15.5431 3.37118 17.9774 5.36354 19.9698C7.3559 21.9622 9.79028 22.9583 12.6667 22.9583ZM5.7 29.925L12.6667 27.7479L19.6333 29.925V23.1563C18.5778 23.9215 17.4431 24.4757 16.2292 24.8188C15.0153 25.1618 13.8278 25.3333 12.6667 25.3333C11.5056 25.3333 10.3181 25.1618 9.10417 24.8188C7.89028 24.4757 6.75556 23.9215 5.7 23.1563V29.925Z" fill="#FFD851"/>
</svg>
